<mxfile host="app.diagrams.net" agent="Mozilla/5.0 (Windows NT 10.0; Win64; x64) AppleWebKit/537.36 (KHTML, like Gecko) Chrome/135.0.0.0 Safari/537.36" version="26.2.14">
  <diagram name="Página-1" id="xY6EBybo0hOzNz2pUe3O">
    <mxGraphModel dx="860" dy="465" grid="0" gridSize="10" guides="1" tooltips="1" connect="1" arrows="1" fold="1" page="1" pageScale="1" pageWidth="827" pageHeight="1169" math="0" shadow="0">
      <root>
        <mxCell id="0" />
        <mxCell id="1" parent="0" />
        <mxCell id="O92VsQC-JA_Zry2LBJR_-11" value="" style="rounded=0;whiteSpace=wrap;html=1;" vertex="1" parent="1">
          <mxGeometry x="44" y="250" width="116" height="30" as="geometry" />
        </mxCell>
        <mxCell id="O92VsQC-JA_Zry2LBJR_-3" value="" style="rounded=0;whiteSpace=wrap;html=1;fillColor=#647687;fontColor=#ffffff;strokeColor=#314354;" vertex="1" parent="1">
          <mxGeometry x="28" y="53" width="781" height="93" as="geometry" />
        </mxCell>
        <mxCell id="O92VsQC-JA_Zry2LBJR_-4" value="&amp;lt; header &amp;gt;" style="text;html=1;align=center;verticalAlign=middle;whiteSpace=wrap;rounded=0;" vertex="1" parent="1">
          <mxGeometry x="28" y="50.75" width="69" height="30" as="geometry" />
        </mxCell>
        <mxCell id="O92VsQC-JA_Zry2LBJR_-5" value="&amp;lt; / header &amp;gt;" style="text;html=1;align=center;verticalAlign=middle;whiteSpace=wrap;rounded=0;" vertex="1" parent="1">
          <mxGeometry x="737" y="115" width="69" height="30" as="geometry" />
        </mxCell>
        <mxCell id="O92VsQC-JA_Zry2LBJR_-6" value="&amp;lt; Registro de Productos &amp;gt;" style="text;html=1;align=center;verticalAlign=middle;whiteSpace=wrap;rounded=0;" vertex="1" parent="1">
          <mxGeometry x="280" y="80.75" width="225" height="45.5" as="geometry" />
        </mxCell>
        <mxCell id="O92VsQC-JA_Zry2LBJR_-7" value="&amp;lt; body&amp;gt;&amp;nbsp;" style="text;html=1;align=center;verticalAlign=middle;whiteSpace=wrap;rounded=0;" vertex="1" parent="1">
          <mxGeometry x="26" y="20.75" width="60" height="30" as="geometry" />
        </mxCell>
        <mxCell id="O92VsQC-JA_Zry2LBJR_-8" value="&amp;lt;p&amp;gt; El siguiente formulario es para el registro adecuado del producto o&lt;br&gt;&amp;nbsp; &amp;nbsp; &amp;nbsp; servicio que desea registrar. &amp;lt;/p&amp;gt;" style="rounded=0;whiteSpace=wrap;html=1;fillColor=#e3c800;fontColor=#000000;strokeColor=#B09500;" vertex="1" parent="1">
          <mxGeometry x="28" y="160" width="781" height="54" as="geometry" />
        </mxCell>
        <mxCell id="O92VsQC-JA_Zry2LBJR_-9" value="" style="rounded=0;whiteSpace=wrap;html=1;" vertex="1" parent="1">
          <mxGeometry x="20" y="240" width="778" height="949" as="geometry" />
        </mxCell>
        <mxCell id="O92VsQC-JA_Zry2LBJR_-13" value="" style="rounded=0;whiteSpace=wrap;html=1;" vertex="1" parent="1">
          <mxGeometry x="41" y="250" width="225" height="26" as="geometry" />
        </mxCell>
        <mxCell id="O92VsQC-JA_Zry2LBJR_-14" value="Nombre:" style="text;html=1;align=center;verticalAlign=middle;whiteSpace=wrap;rounded=0;" vertex="1" parent="1">
          <mxGeometry x="111" y="248" width="62" height="30" as="geometry" />
        </mxCell>
        <mxCell id="O92VsQC-JA_Zry2LBJR_-20" value="&amp;lt; Label&amp;gt;" style="text;html=1;align=center;verticalAlign=middle;whiteSpace=wrap;rounded=0;" vertex="1" parent="1">
          <mxGeometry x="34" y="248" width="69" height="30" as="geometry" />
        </mxCell>
        <mxCell id="O92VsQC-JA_Zry2LBJR_-21" value="&amp;lt; / Label&amp;gt;" style="text;html=1;align=center;verticalAlign=middle;whiteSpace=wrap;rounded=0;" vertex="1" parent="1">
          <mxGeometry x="181" y="248" width="66" height="30" as="geometry" />
        </mxCell>
        <mxCell id="O92VsQC-JA_Zry2LBJR_-25" value="" style="rounded=0;whiteSpace=wrap;html=1;" vertex="1" parent="1">
          <mxGeometry x="41" y="289" width="673" height="26" as="geometry" />
        </mxCell>
        <mxCell id="O92VsQC-JA_Zry2LBJR_-26" value="&amp;lt; input&amp;gt;" style="text;html=1;align=center;verticalAlign=middle;whiteSpace=wrap;rounded=0;" vertex="1" parent="1">
          <mxGeometry x="47" y="287" width="69" height="30" as="geometry" />
        </mxCell>
        <mxCell id="O92VsQC-JA_Zry2LBJR_-27" value="&amp;lt; / input&amp;gt;" style="text;html=1;align=center;verticalAlign=middle;whiteSpace=wrap;rounded=0;" vertex="1" parent="1">
          <mxGeometry x="629" y="287" width="69" height="30" as="geometry" />
        </mxCell>
        <mxCell id="O92VsQC-JA_Zry2LBJR_-29" value="" style="rounded=0;whiteSpace=wrap;html=1;" vertex="1" parent="1">
          <mxGeometry x="36" y="348" width="208" height="26" as="geometry" />
        </mxCell>
        <mxCell id="O92VsQC-JA_Zry2LBJR_-22" value="Categoria" style="text;html=1;align=center;verticalAlign=middle;whiteSpace=wrap;rounded=0;" vertex="1" parent="1">
          <mxGeometry x="111" y="346" width="62" height="30" as="geometry" />
        </mxCell>
        <mxCell id="O92VsQC-JA_Zry2LBJR_-23" value="&amp;lt; Label&amp;gt;" style="text;html=1;align=center;verticalAlign=middle;whiteSpace=wrap;rounded=0;" vertex="1" parent="1">
          <mxGeometry x="34" y="346" width="69" height="30" as="geometry" />
        </mxCell>
        <mxCell id="O92VsQC-JA_Zry2LBJR_-24" value="&amp;lt; / Label&amp;gt;" style="text;html=1;align=center;verticalAlign=middle;whiteSpace=wrap;rounded=0;" vertex="1" parent="1">
          <mxGeometry x="173" y="346" width="69" height="30" as="geometry" />
        </mxCell>
        <mxCell id="O92VsQC-JA_Zry2LBJR_-30" value="" style="rounded=0;whiteSpace=wrap;html=1;" vertex="1" parent="1">
          <mxGeometry x="39" y="387" width="673" height="26" as="geometry" />
        </mxCell>
        <mxCell id="O92VsQC-JA_Zry2LBJR_-31" value="&amp;lt; select &amp;gt;" style="text;html=1;align=center;verticalAlign=middle;whiteSpace=wrap;rounded=0;" vertex="1" parent="1">
          <mxGeometry x="45" y="385" width="69" height="30" as="geometry" />
        </mxCell>
        <mxCell id="O92VsQC-JA_Zry2LBJR_-32" value="&amp;lt; / select &amp;gt;" style="text;html=1;align=center;verticalAlign=middle;whiteSpace=wrap;rounded=0;" vertex="1" parent="1">
          <mxGeometry x="627" y="385" width="69" height="30" as="geometry" />
        </mxCell>
        <mxCell id="O92VsQC-JA_Zry2LBJR_-37" value="" style="rounded=0;whiteSpace=wrap;html=1;" vertex="1" parent="1">
          <mxGeometry x="39" y="453" width="208" height="26" as="geometry" />
        </mxCell>
        <mxCell id="O92VsQC-JA_Zry2LBJR_-33" value="Imagen" style="text;html=1;align=center;verticalAlign=middle;whiteSpace=wrap;rounded=0;" vertex="1" parent="1">
          <mxGeometry x="115" y="453" width="62" height="30" as="geometry" />
        </mxCell>
        <mxCell id="O92VsQC-JA_Zry2LBJR_-34" value="&amp;lt; Label&amp;gt;" style="text;html=1;align=center;verticalAlign=middle;whiteSpace=wrap;rounded=0;" vertex="1" parent="1">
          <mxGeometry x="38" y="453" width="69" height="30" as="geometry" />
        </mxCell>
        <mxCell id="O92VsQC-JA_Zry2LBJR_-35" value="&amp;lt; / Label&amp;gt;" style="text;html=1;align=center;verticalAlign=middle;whiteSpace=wrap;rounded=0;" vertex="1" parent="1">
          <mxGeometry x="177" y="453" width="69" height="30" as="geometry" />
        </mxCell>
        <mxCell id="O92VsQC-JA_Zry2LBJR_-38" value="" style="rounded=0;whiteSpace=wrap;html=1;" vertex="1" parent="1">
          <mxGeometry x="36" y="497" width="673" height="26" as="geometry" />
        </mxCell>
        <mxCell id="O92VsQC-JA_Zry2LBJR_-39" value="&amp;lt; select &amp;gt;" style="text;html=1;align=center;verticalAlign=middle;whiteSpace=wrap;rounded=0;" vertex="1" parent="1">
          <mxGeometry x="45" y="495" width="69" height="30" as="geometry" />
        </mxCell>
        <mxCell id="O92VsQC-JA_Zry2LBJR_-40" value="&amp;lt; / select &amp;gt;" style="text;html=1;align=center;verticalAlign=middle;whiteSpace=wrap;rounded=0;" vertex="1" parent="1">
          <mxGeometry x="627" y="495" width="69" height="30" as="geometry" />
        </mxCell>
        <mxCell id="O92VsQC-JA_Zry2LBJR_-44" value="" style="rounded=0;whiteSpace=wrap;html=1;" vertex="1" parent="1">
          <mxGeometry x="36" y="609" width="673" height="26" as="geometry" />
        </mxCell>
        <mxCell id="O92VsQC-JA_Zry2LBJR_-45" value="&amp;lt;Input &amp;gt;" style="text;html=1;align=center;verticalAlign=middle;whiteSpace=wrap;rounded=0;" vertex="1" parent="1">
          <mxGeometry x="45" y="607" width="69" height="30" as="geometry" />
        </mxCell>
        <mxCell id="O92VsQC-JA_Zry2LBJR_-46" value="&amp;lt; / Input &amp;gt;" style="text;html=1;align=center;verticalAlign=middle;whiteSpace=wrap;rounded=0;" vertex="1" parent="1">
          <mxGeometry x="627" y="607" width="69" height="30" as="geometry" />
        </mxCell>
        <mxCell id="O92VsQC-JA_Zry2LBJR_-47" value="" style="rounded=0;whiteSpace=wrap;html=1;" vertex="1" parent="1">
          <mxGeometry x="34" y="572" width="208" height="26" as="geometry" />
        </mxCell>
        <mxCell id="O92VsQC-JA_Zry2LBJR_-48" value="Código" style="text;html=1;align=center;verticalAlign=middle;whiteSpace=wrap;rounded=0;" vertex="1" parent="1">
          <mxGeometry x="109" y="572" width="62" height="30" as="geometry" />
        </mxCell>
        <mxCell id="O92VsQC-JA_Zry2LBJR_-49" value="&amp;lt; Label&amp;gt;" style="text;html=1;align=center;verticalAlign=middle;whiteSpace=wrap;rounded=0;" vertex="1" parent="1">
          <mxGeometry x="32" y="572" width="69" height="30" as="geometry" />
        </mxCell>
        <mxCell id="O92VsQC-JA_Zry2LBJR_-50" value="&amp;lt; / Label&amp;gt;" style="text;html=1;align=center;verticalAlign=middle;whiteSpace=wrap;rounded=0;" vertex="1" parent="1">
          <mxGeometry x="171" y="572" width="69" height="30" as="geometry" />
        </mxCell>
        <mxCell id="O92VsQC-JA_Zry2LBJR_-51" value="" style="rounded=0;whiteSpace=wrap;html=1;" vertex="1" parent="1">
          <mxGeometry x="40" y="723" width="673" height="26" as="geometry" />
        </mxCell>
        <mxCell id="O92VsQC-JA_Zry2LBJR_-52" value="&amp;lt;Input &amp;gt;" style="text;html=1;align=center;verticalAlign=middle;whiteSpace=wrap;rounded=0;" vertex="1" parent="1">
          <mxGeometry x="49" y="721" width="69" height="30" as="geometry" />
        </mxCell>
        <mxCell id="O92VsQC-JA_Zry2LBJR_-53" value="&amp;lt; / Input &amp;gt;" style="text;html=1;align=center;verticalAlign=middle;whiteSpace=wrap;rounded=0;" vertex="1" parent="1">
          <mxGeometry x="631" y="721" width="69" height="30" as="geometry" />
        </mxCell>
        <mxCell id="O92VsQC-JA_Zry2LBJR_-57" value="" style="rounded=0;whiteSpace=wrap;html=1;" vertex="1" parent="1">
          <mxGeometry x="38" y="683" width="225" height="26" as="geometry" />
        </mxCell>
        <mxCell id="O92VsQC-JA_Zry2LBJR_-58" value="Precio" style="text;html=1;align=center;verticalAlign=middle;whiteSpace=wrap;rounded=0;" vertex="1" parent="1">
          <mxGeometry x="113" y="681" width="62" height="30" as="geometry" />
        </mxCell>
        <mxCell id="O92VsQC-JA_Zry2LBJR_-59" value="&amp;lt; Label&amp;gt;" style="text;html=1;align=center;verticalAlign=middle;whiteSpace=wrap;rounded=0;" vertex="1" parent="1">
          <mxGeometry x="36" y="681" width="69" height="30" as="geometry" />
        </mxCell>
        <mxCell id="O92VsQC-JA_Zry2LBJR_-60" value="&amp;lt; / Label&amp;gt;" style="text;html=1;align=center;verticalAlign=middle;whiteSpace=wrap;rounded=0;" vertex="1" parent="1">
          <mxGeometry x="175" y="681" width="69" height="30" as="geometry" />
        </mxCell>
        <mxCell id="O92VsQC-JA_Zry2LBJR_-68" value="" style="rounded=0;whiteSpace=wrap;html=1;" vertex="1" parent="1">
          <mxGeometry x="43" y="801" width="225" height="26" as="geometry" />
        </mxCell>
        <mxCell id="O92VsQC-JA_Zry2LBJR_-69" value="Cantidad:" style="text;html=1;align=center;verticalAlign=middle;whiteSpace=wrap;rounded=0;" vertex="1" parent="1">
          <mxGeometry x="113" y="799" width="62" height="30" as="geometry" />
        </mxCell>
        <mxCell id="O92VsQC-JA_Zry2LBJR_-70" value="&amp;lt; Label&amp;gt;" style="text;html=1;align=center;verticalAlign=middle;whiteSpace=wrap;rounded=0;" vertex="1" parent="1">
          <mxGeometry x="36" y="799" width="69" height="30" as="geometry" />
        </mxCell>
        <mxCell id="O92VsQC-JA_Zry2LBJR_-71" value="&amp;lt; / Label&amp;gt;" style="text;html=1;align=center;verticalAlign=middle;whiteSpace=wrap;rounded=0;" vertex="1" parent="1">
          <mxGeometry x="183" y="799" width="66" height="30" as="geometry" />
        </mxCell>
        <mxCell id="O92VsQC-JA_Zry2LBJR_-72" value="" style="rounded=0;whiteSpace=wrap;html=1;" vertex="1" parent="1">
          <mxGeometry x="43" y="840" width="673" height="26" as="geometry" />
        </mxCell>
        <mxCell id="O92VsQC-JA_Zry2LBJR_-73" value="&amp;lt; input&amp;gt;" style="text;html=1;align=center;verticalAlign=middle;whiteSpace=wrap;rounded=0;" vertex="1" parent="1">
          <mxGeometry x="49" y="838" width="69" height="30" as="geometry" />
        </mxCell>
        <mxCell id="O92VsQC-JA_Zry2LBJR_-74" value="&amp;lt; /input&amp;gt;" style="text;html=1;align=center;verticalAlign=middle;whiteSpace=wrap;rounded=0;" vertex="1" parent="1">
          <mxGeometry x="647" y="838" width="69" height="30" as="geometry" />
        </mxCell>
        <mxCell id="O92VsQC-JA_Zry2LBJR_-75" value="" style="rounded=0;whiteSpace=wrap;html=1;" vertex="1" parent="1">
          <mxGeometry x="46" y="922" width="225" height="26" as="geometry" />
        </mxCell>
        <mxCell id="O92VsQC-JA_Zry2LBJR_-76" value="Descripción:" style="text;html=1;align=center;verticalAlign=middle;whiteSpace=wrap;rounded=0;" vertex="1" parent="1">
          <mxGeometry x="116" y="920" width="62" height="30" as="geometry" />
        </mxCell>
        <mxCell id="O92VsQC-JA_Zry2LBJR_-77" value="&amp;lt; Label&amp;gt;" style="text;html=1;align=center;verticalAlign=middle;whiteSpace=wrap;rounded=0;" vertex="1" parent="1">
          <mxGeometry x="39" y="920" width="69" height="30" as="geometry" />
        </mxCell>
        <mxCell id="O92VsQC-JA_Zry2LBJR_-78" value="&amp;lt; / Label&amp;gt;" style="text;html=1;align=center;verticalAlign=middle;whiteSpace=wrap;rounded=0;" vertex="1" parent="1">
          <mxGeometry x="186" y="920" width="66" height="30" as="geometry" />
        </mxCell>
        <mxCell id="O92VsQC-JA_Zry2LBJR_-79" value="" style="rounded=0;whiteSpace=wrap;html=1;" vertex="1" parent="1">
          <mxGeometry x="46" y="961" width="673" height="26" as="geometry" />
        </mxCell>
        <mxCell id="O92VsQC-JA_Zry2LBJR_-80" value="&amp;lt; textarea&amp;gt;" style="text;html=1;align=center;verticalAlign=middle;whiteSpace=wrap;rounded=0;" vertex="1" parent="1">
          <mxGeometry x="52" y="959" width="69" height="30" as="geometry" />
        </mxCell>
        <mxCell id="O92VsQC-JA_Zry2LBJR_-81" value="&amp;lt; /textarea&amp;gt;" style="text;html=1;align=center;verticalAlign=middle;whiteSpace=wrap;rounded=0;" vertex="1" parent="1">
          <mxGeometry x="650" y="959" width="69" height="30" as="geometry" />
        </mxCell>
        <mxCell id="O92VsQC-JA_Zry2LBJR_-82" value="" style="rounded=1;whiteSpace=wrap;html=1;" vertex="1" parent="1">
          <mxGeometry x="49" y="1044" width="666" height="49" as="geometry" />
        </mxCell>
        <mxCell id="O92VsQC-JA_Zry2LBJR_-83" value="&amp;lt;divl&amp;gt;" style="text;html=1;align=center;verticalAlign=middle;whiteSpace=wrap;rounded=0;" vertex="1" parent="1">
          <mxGeometry x="46" y="1042" width="69" height="30" as="geometry" />
        </mxCell>
        <mxCell id="O92VsQC-JA_Zry2LBJR_-84" value="&amp;lt;/divl&amp;gt;" style="text;html=1;align=center;verticalAlign=middle;whiteSpace=wrap;rounded=0;" vertex="1" parent="1">
          <mxGeometry x="643" y="1063" width="69" height="30" as="geometry" />
        </mxCell>
        <mxCell id="O92VsQC-JA_Zry2LBJR_-85" value="" style="rounded=0;whiteSpace=wrap;html=1;fillColor=#e3c800;fontColor=#000000;strokeColor=#B09500;" vertex="1" parent="1">
          <mxGeometry x="149" y="1056.25" width="140" height="24.5" as="geometry" />
        </mxCell>
        <mxCell id="O92VsQC-JA_Zry2LBJR_-86" value="" style="rounded=0;whiteSpace=wrap;html=1;fillColor=#e3c800;fontColor=#000000;strokeColor=#B09500;" vertex="1" parent="1">
          <mxGeometry x="393" y="1056.25" width="140" height="24.5" as="geometry" />
        </mxCell>
        <mxCell id="O92VsQC-JA_Zry2LBJR_-87" value="&amp;lt;buttonl&amp;gt;" style="text;html=1;align=center;verticalAlign=middle;whiteSpace=wrap;rounded=0;" vertex="1" parent="1">
          <mxGeometry x="140" y="1050.75" width="69" height="30" as="geometry" />
        </mxCell>
        <mxCell id="O92VsQC-JA_Zry2LBJR_-88" value="&amp;lt;/button&amp;gt;" style="text;html=1;align=center;verticalAlign=middle;whiteSpace=wrap;rounded=0;" vertex="1" parent="1">
          <mxGeometry x="224" y="1056.25" width="69" height="30" as="geometry" />
        </mxCell>
        <mxCell id="O92VsQC-JA_Zry2LBJR_-89" value="&amp;lt;/ button&amp;gt;" style="text;html=1;align=center;verticalAlign=middle;whiteSpace=wrap;rounded=0;" vertex="1" parent="1">
          <mxGeometry x="472" y="1056.25" width="69" height="30" as="geometry" />
        </mxCell>
        <mxCell id="O92VsQC-JA_Zry2LBJR_-90" value="&amp;lt; button&amp;gt;" style="text;html=1;align=center;verticalAlign=middle;whiteSpace=wrap;rounded=0;" vertex="1" parent="1">
          <mxGeometry x="388" y="1050.75" width="69" height="30" as="geometry" />
        </mxCell>
        <mxCell id="O92VsQC-JA_Zry2LBJR_-91" value="" style="rounded=1;whiteSpace=wrap;html=1;fillColor=#647687;fontColor=#ffffff;strokeColor=#314354;" vertex="1" parent="1">
          <mxGeometry x="335.75" y="1119" width="113.5" height="30" as="geometry" />
        </mxCell>
        <mxCell id="O92VsQC-JA_Zry2LBJR_-92" value="&amp;lt;buttonl&amp;gt;" style="text;html=1;align=center;verticalAlign=middle;whiteSpace=wrap;rounded=0;" vertex="1" parent="1">
          <mxGeometry x="329" y="1114" width="69" height="30" as="geometry" />
        </mxCell>
        <mxCell id="O92VsQC-JA_Zry2LBJR_-93" value="&amp;lt;/button&amp;gt;" style="text;html=1;align=center;verticalAlign=middle;whiteSpace=wrap;rounded=0;" vertex="1" parent="1">
          <mxGeometry x="386" y="1124" width="69" height="30" as="geometry" />
        </mxCell>
        <mxCell id="O92VsQC-JA_Zry2LBJR_-94" value="&amp;lt;/body&amp;gt;&amp;nbsp;" style="text;html=1;align=center;verticalAlign=middle;whiteSpace=wrap;rounded=0;" vertex="1" parent="1">
          <mxGeometry x="738" y="1194" width="60" height="30" as="geometry" />
        </mxCell>
      </root>
    </mxGraphModel>
  </diagram>
</mxfile>
